<?xml version="1.0" encoding="UTF-8"?>
<svg id="Layer_2" data-name="Layer 2" xmlns="http://www.w3.org/2000/svg" viewBox="0 0 94.58 107.29">
  <defs>
    <style>
      .cls-1 {
        fill: #2b3a35;
      }

      .cls-1, .cls-2 {
        stroke-width: 0px;
      }

      .cls-2 {
        fill: #526b64;
      }
    </style>
  </defs>
  <g id="Layer_1-2" data-name="Layer 1">
    <g>
      <path class="cls-2" d="M7.2,34.33c9.6-10.88,24-10.15,25.79-10.02,15.49,1.04,24.25,12.99,26.02,15.54,11.65,16.84,5,38.69,3.22,38.75-1.99.07.94-26.8-14.6-36.95-4.76-3.11-9.84-3.73-13.07-3.83-.76-.44-6.44-3.59-12.62-1.06-1.06.43-5,2.18-6.98,6.58-1.84,4.08-.95,9.17,1.8,12.6.82,1.03,3.85,4.15,7.92,4.15,3.36,0,6.01-3.09,6.01-7.6,0-2.91-.53-5.3-8.75-15.73-4.68-6.01-6.18-10.95-6.18-16.43C15.77,10.52,23.37,0,34.5,0c9.54,0,13.34,5.48,13.34,10.78,0,3.45-1.86,6.27-3.8,7.25-4.68-3.89-7.95-5.66-11.22-5.66-1.94,0-3.53,1.68-3.53,4.24,0,2.3.16,4.65,6.63,13.43,5.4,7.32,7.8,9.58,8.57,14.42.35,2.19.2,3.88.09,5.02-.62,6.51-4.17,14.45-11.67,18.73-3.47,1.98-7.63,3.19-12.36,3.19-8.15,0-13.89-2.88-17.18-7.28C.43,60.22.17,55.98.04,53.64c-.55-9.99,5.44-17.36,7.16-19.31Z"/>
      <path class="cls-1" d="M30.16,75.39c0-17.94,14.05-31.9,32.78-31.9s30.58,11.84,31.55,26.24h-19.79c-.53-3.45-5.12-8.22-12.28-8.22s-13.17,5.12-13.17,13.52,6.27,13.96,12.9,13.96c5.13,0,8.66-1.77,10.96-5.48.45-2.74-.99-5.45-3.5-6.61-2.54-1.17-5.58-.48-7.37,1.69l3.13-9.86c9.74,2.75,19.47,5.5,29.21,8.25-.18,16.26-12.9,30.31-31.64,30.31s-32.78-13.87-32.78-31.9Z"/>
    </g>
  </g>
</svg>