<?xml version="1.0" encoding="UTF-8"?>
<svg id="Layer_2" data-name="Layer 2" xmlns="http://www.w3.org/2000/svg" viewBox="0 0 164.38 273.41">
  <defs>
    <style>
      .cls-1 {
        fill: #74ad7d;
      }

      .cls-1, .cls-2, .cls-3, .cls-4, .cls-5, .cls-6, .cls-7, .cls-8, .cls-9, .cls-10, .cls-11, .cls-12, .cls-13, .cls-14, .cls-15, .cls-16, .cls-17, .cls-18, .cls-19, .cls-20, .cls-21, .cls-22, .cls-23, .cls-24, .cls-25, .cls-26, .cls-27, .cls-28, .cls-29, .cls-30, .cls-31, .cls-32, .cls-33, .cls-34, .cls-35, .cls-36, .cls-37, .cls-38, .cls-39, .cls-40, .cls-41, .cls-42, .cls-43, .cls-44, .cls-45, .cls-46, .cls-47, .cls-48, .cls-49, .cls-50, .cls-51, .cls-52, .cls-53, .cls-54, .cls-55, .cls-56, .cls-57, .cls-58, .cls-59 {
        stroke-width: 0px;
      }

      .cls-2 {
        fill: #79b342;
      }

      .cls-3 {
        fill: #50ba66;
      }

      .cls-4 {
        fill: #50a747;
      }

      .cls-5 {
        fill: #777e75;
      }

      .cls-6 {
        fill: #313524;
      }

      .cls-7 {
        fill: #2c4d24;
      }

      .cls-8 {
        fill: #293919;
      }

      .cls-9 {
        fill: #4a6547;
      }

      .cls-10 {
        fill: #5a6c44;
      }

      .cls-11 {
        fill: #455325;
      }

      .cls-12 {
        fill: #3b321b;
      }

      .cls-13 {
        fill: #3d4028;
      }

      .cls-14 {
        fill: #2e3517;
      }

      .cls-15 {
        fill: #5a4d28;
      }

      .cls-16 {
        fill: #839180;
      }

      .cls-17 {
        fill: #3c4420;
      }

      .cls-18 {
        fill: #1b371a;
      }

      .cls-19 {
        fill: #1a3c1c;
      }

      .cls-20 {
        fill: #17552b;
      }

      .cls-21 {
        fill: #196634;
      }

      .cls-22 {
        fill: #0b723a;
      }

      .cls-23 {
        fill: #0c8b44;
      }

      .cls-24 {
        fill: #0ba84b;
      }

      .cls-25 {
        fill: #0c7c3e;
      }

      .cls-26 {
        fill: #089447;
      }

      .cls-27 {
        fill: #373c19;
      }

      .cls-28 {
        fill: #0e6a36;
      }

      .cls-29 {
        fill: #0f8240;
      }

      .cls-30 {
        fill: #176333;
      }

      .cls-31 {
        fill: #096c37;
      }

      .cls-32 {
        fill: #1d431e;
      }

      .cls-33 {
        fill: #0b7e3f;
      }

      .cls-34 {
        fill: #152a16;
      }

      .cls-35 {
        fill: #076f39;
      }

      .cls-36 {
        fill: #0a8c44;
      }

      .cls-37 {
        fill: #0b9246;
      }

      .cls-38 {
        fill: #23411c;
      }

      .cls-39 {
        fill: #204b24;
      }

      .cls-40 {
        fill: #204f26;
      }

      .cls-41 {
        fill: #16723a;
      }

      .cls-42 {
        fill: #117b3e;
      }

      .cls-43 {
        fill: #178642;
      }

      .cls-44 {
        fill: #137f3f;
      }

      .cls-45 {
        fill: #116935;
      }

      .cls-46 {
        fill: #122314;
      }

      .cls-47 {
        fill: #937569;
      }

      .cls-48 {
        fill: #90b396;
      }

      .cls-49 {
        fill: #90c288;
      }

      .cls-50 {
        fill: #72a170;
      }

      .cls-51 {
        fill: #8e9892;
      }

      .cls-52 {
        fill: #98cf95;
      }

      .cls-53 {
        fill: #989c9c;
      }

      .cls-54 {
        fill: #84a689;
      }

      .cls-55 {
        fill: #7cc094;
      }

      .cls-56 {
        fill: #747b75;
      }

      .cls-57 {
        fill: #7ea187;
      }

      .cls-58 {
        fill: #697157;
      }

      .cls-59 {
        fill: #65a150;
      }

      .cls-60 {
        stroke: #5a6c44;
      }

      .cls-60, .cls-61 {
        fill: none;
        stroke-miterlimit: 10;
        stroke-width: .25px;
      }

      .cls-61 {
        stroke: #989c9c;
      }
    </style>
  </defs>
  <g id="Layer_15" data-name="Layer 15">
    <g>
      <path class="cls-47" d="M36.98,200.59c12.33-1.24,25.89-2.07,40.52-2.13,14.37-.07,27.72.61,39.88,1.7-.71,22.17-1.43,44.34-2.14,66.51,0,0,.21,6.2-2.57,6.74H41.15s-1.6-1.28-1.5-5.88l-2.67-66.93Z"/>
      <path class="cls-39" d="M109.59,98.11s4.53-1.32,6.58,0l4.24.54s2.11-.76,4.13.68l3.86-.61-1.06,1.27s-1.77-.99-2.05,1.41-.75,2.83-.75,2.83c0,0-5.55,9.06-14.96,11.6l-7.78.78s-10.87,3.85-13.08,2.7,0,0,0,0l8.48-14.24,12.38-6.97Z"/>
      <path class="cls-53" d="M131.21,24.03s-3.61,6.28-3.67,7.72l-6.01,10.05.76-.02,5.91-9.25s4.08-2.64,5.22-4.02l2.16-.12s1.14,1.14,2.16.36c0,0-.9-.9-2.1-1.08l-1.2-.18.96-2.64s-3.48,4.62-4.92,5.04-1.62,1.26-1.62,1.26c0,0,.72-4.86,4.98-8.04l-2.64.92"/>
      <polyline class="cls-53" points="119.22 42.56 114.58 45.92 117.61 44.72 119.62 43.1 119.22 42.56"/>
      <polyline class="cls-61" points="119.09 47.52 120.82 42.56 121.87 42.56 119.62 47.96 119.09 47.52"/>
      <polyline class="cls-53" points="120.18 47.85 123.75 42.82 124.65 42.16 121.61 46.94 132.16 44.6 126.78 46.4 120.18 47.85 102 66.94 117.61 49.1 120.84 43.34 121.87 42.56"/>
      <polyline class="cls-51" points="93.86 40.54 98.91 53.31 99.85 53.31 95.55 39.8 93.86 40.54"/>
      <polyline class="cls-57" points="90.95 56.62 88.8 64.94 89.88 64.94 92.01 54.55 90.95 56.62"/>
      <path class="cls-57" d="M51.31,59.74s2.76-1.57,7.74-.55c0,0,5.61,3.36,8.63,2.22s0,0,0,0l-.76,1.48s-6.13-2.12-14.02-.75,0,0,0,0l-1.59-2.4"/>
      <polyline class="cls-5" points="73.12 64.51 75.62 70.58 80.47 77.54 82.63 83.33 83.43 82.38 81.87 78.8 83.43 71.31 82.57 71.19 81.67 77.97 76.16 69.85 73.82 64.17 73.12 64.51"/>
      <polygon class="cls-53" points="88.05 68.5 86.8 72.84 87.3 77.01 86.8 78.03 86.3 69.24 88.05 68.5"/>
      <polygon class="cls-53" points="85.4 89.37 85.6 91.97 84.55 88.96 85.4 89.37"/>
      <polygon class="cls-53" points="87.17 88.3 88.73 88.96 89.07 87.16 92.6 85.6 89.88 92.38 88.73 92.79 91.17 87.22 87.76 91.06 87.17 93.1 85.91 88.48 87.17 88.3"/>
      <path class="cls-4" d="M84.2,95.02s-7.35,3.09-4.54,4.31,0,0,0,0h0l-2.53,2.18-1.23-2.48-1,.3,1.66,2.55-.34,8.03-5.46,17.01h1.11l6.21-19.65,6.47-4.98,1.36.31s1.51-2.39,2.49-2.65l-4.2-4.92"/>
      <polygon class="cls-4" points="69.38 129.36 65.66 137.24 65.97 138.36 70.04 128.71 69.38 129.36"/>
      <polygon class="cls-4" points="64.81 131.41 65.13 137.63 65.82 137.81 65.82 131.41 64.81 131.41"/>
      <polygon class="cls-16" points="85.33 102.46 81.98 137.81 83.19 137.04 84.17 127.37 86.4 101.88 85.91 102.6 85.33 102.46"/>
      <path class="cls-16" d="M85.1,124.2s1.21-4.17,2.89-4.88,0,0,0,0v1.02s-1.27.03-2.89,3.86,0,0,0,0"/>
      <path class="cls-16" d="M87.99,120.34s-1.74,4.18-3.06,4.98v.59s2.88-2.21,3.06-5.56"/>
      <path class="cls-16" d="M80.17,146.75l-1.5,25.1,1.06-.24,1.36-7.68,2.2-1.3s-2.74,2.35-.83-1.66,0,0,0,0l5.4-4.91,6.69-5.41,5.2-8.2,2.76-.78h-2.76s-.38-3.34-.38-3.34l-.52,4.12-4.31,7.2-13.22,11.45.15-14.36h-1.3"/>
      <path class="cls-56" d="M65.66,157.92l2.4,5.47,8.46,8.76-.78.24-8.18-8.46-3.15-2.82s-.54-1.55-.26-2.61,0,0,0,0c0,0,.12,3.36,2.58,3.89l-1.82-4.94.75.47"/>
      <path class="cls-33" d="M99.37,138.34s5.84-6.83,14.06-4.19c0,0,4.32.6,4.68,4.74l1.87,3.59s-3.07-4.75-9.86-4.47-10.76.32-10.76.32"/>
      <path class="cls-21" d="M93.45,106.62s-2.85-3.25-2.09-6.4,0,0,0,0l-2.1-1.78,14.16-9.48h5.73l5.22-1.88s-.2,5.87-3.74,10.81c-3.54,4.94-14.9,9.07-14.9,9.07l-2.27-.34"/>
      <path class="cls-36" d="M127.96,69.85s3.3,1.1,4.2,8,1.26,5.28,1.26,5.28c0,0,2.7,5.28-1.92,9.96l-.42,1.38s-2.28.18-2.28-3.12-.54-7.2-.54-7.2c0,0-2.82-12.73-3.72-13.09l3.42-1.22Z"/>
      <path class="cls-10" d="M109.42,67.59s5.3-6.62,12.19-2.65,0,0,0,0l.2,1.15s-1.74-1.86-6.5-1.44-5.29,3.36-5.29,3.36l-.6-.42"/>
      <path class="cls-60" d="M4.21,178.38s4.85-4.98,9.55-4.9c0,0,2.14-1.04,4.36-1.09s11.39,0,11.39,0l10.21.77-2.2,1.01-6.94.18-12.53-.03s-3.87-1.16-7.64.42-6.19,3.64-6.19,3.64Z"/>
      <polygon class="cls-13" points="80.17 146.75 79.73 159.38 81.47 146.75 80.17 146.75"/>
      <polygon class="cls-9" points="59.55 143.29 59.73 146.31 60.32 146.31 59.93 142.89 59.55 143.29"/>
      <path class="cls-20" d="M51.83,123.03s-2.83-.68-5.88-2.02,0,0,0,0c0,0-5.01-.31-5.69-1.45s-3.52.43-3.52.43l-1.34.36h-3.39s3,.64,3,1.52c0,0,1.42-.92,1.97.41s8.29,1.32,8.29,1.32l3.15,2.16,2.62,1.15s1.28-1.93.79-3.89"/>
      <path class="cls-41" d="M57.54,129.36s4.15,6.55,7.88,7.34c0,0,4.91,3.5-2.78,8.3s0,0,0,0c0,0-8.63-2.61-10.21-6.75s-.83-7.93-.83-7.93c0,0,.31-3.36,5.93-.96Z"/>
      <polyline class="cls-23" points="52.74 129.36 62.64 145 62.64 142.09 54.64 131.41 54.06 128.71 52.74 129.36"/>
      <path class="cls-42" d="M58.19,129.64l2.26-3.21,2.7-.26,3.47-.85,1.72.95s3.26-1.08,3.52.64-3.79,3.62-3.79,3.62l-2.42,2.58s-.74-1.52-2.5-1.34-2.86.5-2.86.5l-2.1-.64v-2Z"/>
      <path class="cls-54" d="M42.73,143.62s9.92,2.25,10.58,3.42,1.63.56,1.63.56l.63-1.33-1.98-2.02s-10.53-1.64-10.87-.63Z"/>
      <path class="cls-7" d="M60,149.22s.41,1.6,2.07,1.6,0,0,0,0l-.3,4.51-1.57.36-1-2.04-1.01-2.83,1.81-1.6Z"/>
      <path class="cls-26" d="M61.46,156.91l1.05,1.45,1.64.14,1.51-.58s2.69-1.34,3.41-1.02l3.84,5.11s4.41-.5,5.43-4.09c0,0-1.48-1.8-2.41-3.5s-1.6-2.62-1.6-2.62c0,0-.65-1.4,1.57-2.58s3.92-1.4,3.92-1.4c0,0,5.15-1.48,5.98-6.29,0,0,.28-1.26.96-1.7s0-.28,0-.28c0,0,2.1-1.02,2.25-2.87l2.1-1.42s-1.39-.09-.43-1.45c0,0,.09-.49,1.14-.49s.62-1.33.62-1.33c0,0-2.04,1.23-2.62,1.11s-2.5.74-2.5.74c0,0-2.9,1.35-3.15,2.48,0,0-1.99.06-2.97,1.01s-4.84,3.88-4.84,3.88l-5.49,4.1-4.6,4.72-4.01,3.98-.8,2.88Z"/>
      <path class="cls-44" d="M50.21,63.51s3.87-1.34,3.53-2.82l-2.43-.95s-.53-.14-.81,1.15-.29,2.63-.29,2.63Z"/>
      <path class="cls-26" d="M67.68,61.41s3.72-1.53,4.87-.19,2.2,2.05,2.2,2.05l-.62,1.91-1-.67-7.11-1.86,1.67-1.24Z"/>
      <path class="cls-44" d="M88.16,34.82h1.24s2.43-1.1,3.72-.95c0,0,2.91-2.08,5.2-.01s-2.82,6.84-2.82,6.84l-4.58-.43s-1.86-.62-2.2-2.39c0,0-2.63-.05-.57-3.05Z"/>
      <path class="cls-22" d="M85.2,51.88s2.24-3.79,6.16-3.69,5.25-1.24,5.25-1.24l1.29,3.39s-9.26,7.21-12.08,13.13c0,0-4.06-3.82-3.1-8.54,0,0,.67-2.88,2.48-3.04Z"/>
      <path class="cls-25" d="M97.66,45.89s2.95-6.36,9.16-4.11c0,0,2.67,1.2,2.72,2.49l4.1,1.62-1.62.81s-2.2-1.19-3.68-1-9.64,4.2-9.64,4.2l-1.43-3.48.39-.53Z"/>
      <path class="cls-35" d="M125.15,41.5s6.49-10.83,18.57-10.45c0,0,6.54-2.05,13.98,1.58,0,0,6.49,1.53,6.68,3.96,0,0-20.19.72-39.23,4.92Z"/>
      <path class="cls-29" d="M131.21,24.03s-1.05-15.7,7.54-18.14l5.82-2.82s3.2-4.96,11.84-2.29c0,0,5.15.33,5.11,2.1s.86,3.15-1.15,4.49-3.44,3.25-3.44,3.25c0,0-5.78.91-6.35,5.68s-7.21,3.58-7.21,3.58c0,0-9.55,4.06-12.17,4.15Z"/>
      <polygon class="cls-17" points="117.61 49.71 119.09 47.52 120.18 47.85 117.61 49.71"/>
      <polygon class="cls-17" points="100.43 64.17 99.85 58.5 100.88 57.61 100.43 64.17"/>
      <polygon class="cls-38" points="101.09 66.7 102 66.94 101.09 68.47 101.09 66.7"/>
      <path class="cls-30" d="M121.61,67.86v-2.92s3.5.9,4.5,2.74,0,0,0,0l-4.5.18"/>
      <path class="cls-28" d="M125.63,67.86l10.4-1.15s3.48,1.51,1.34,2.75-3.15-.76-3.15-.76c0,0-.81-.86-2.53,1.14s-13.41,1.91-13.41,1.91l-6.35-1.38,13.71-2.52"/>
      <polygon class="cls-58" points="86.3 70.47 86.96 73.62 87.3 69.52 86.3 70.47"/>
      <path class="cls-37" d="M82.91,72.35s-2.72-3.69-.91-6.46,5.11-.72,5.11-.72c0,0,3.15-2,4.58,0,0,0,2-.91,1.86.29,0,0-1.24.05-.67.91s3.34,1.48,3.34,1.48c0,0-3.1-1.77-4.68-.86s-8.64,5.36-8.64,5.36Z"/>
      <path class="cls-6" d="M80.47,77.54l1.19,2.53s.48-1.81,0-2.1-1.19-.43-1.19-.43Z"/>
      <path class="cls-19" d="M79.33,86.94s5.35-5.35,7.47-9.4v-1.96l.84.57s.95-.72,2.2-.29,2.63-1.77,2.63-1.77c0,0,1.53-4.34,5.01-3.39s2.97,2.91,2.97,2.91h.66v1.86s1.86,1.34,5.35-.86l4.3-1.34,3.75-2.35,5.32,1.87,2,3.05s-1.15-2.72-3.91-2.72-4.96.48-4.96.48c0,0-3.58,1.72-6.4,2.29s-4.77,2-4.77,2c0,0-1.1,1.72-2.67,1.77,0,0,1.1,2.67-2.05,3.48s-5.01,3.01-5.01,3.01l-5.73,3.19-1.43.77-1.29-1.05-4.25-2.15Z"/>
      <path class="cls-45" d="M77.32,106.62s-1.19-4.16,2.34-7.29,4.06-4.27,4.06-4.27c0,0,1.15-1.48,2.05-1.53l-.29-2.67s1.28,2.48,2.5,1.93c0,0,1.65-1.12,2.68-.84,0,0,3.27-3.45,9.9-2.58,0,0,2.58-.42,2.58-1.43h2.96s1.38-1.05,3.44-.24,3.15-1.05,3.15-1.05c0,0,4.2-1.53,6.11.33,0,0-2.67-.57-4.44.1s-10.17,3.62-10.17,3.62l-1.72-.04-4.3,2.63s-9.17,5.02-9.45,7.28,0,0,0,0l-3.63.55-7.78,5.5Z"/>
      <path class="cls-3" d="M92.84,106.96s13.74-16.63,15.74-16.54c0,0-12.9,14.7-12.87,16.54s-1.93,5.79-1.93,5.79l-5.06,6.56-.74,1.02v-2.57l4.86-10.81"/>
      <path class="cls-3" d="M90.41,118.55s24.71-16.77,29.58-16.67l-29.58,16.67"/>
      <path class="cls-59" d="M69.02,102.6s-.43-2.82,4.01-3.53l3.53-.95s-4.3,6.2-6.63,7.28l.29,1.24.38,5.43s-1.02-6.06-3.4-6.35c0,0-.04-2.15,1.82-3.1Z"/>
      <path class="cls-27" d="M83.19,126.98l1.29-19.52-.29-3.96.91,1.88v2.89l.81-1.31-1.62,16.68h1.05s-.95,1.72.38,1.34c0,0-2.1,4.3-2.53,2Z"/>
      <path class="cls-12" d="M81.47,160.49s.62.96,2.2-.29c0,0-1.86.9-1.91,1.81h-.67l.38-1.52Z"/>
      <path class="cls-14" d="M64.91,171.3s2.2,6.47,3.25,6.47c0,0-.05,1.64.53,1.56s3.03.96,3.03.96l-.33.51s-1.25-1.8-3.07-.93l.56,3.54s2.75,2.51,3.45,3.78,0,0,0,0l.31,1.55s-1.76-4.09-3.19-3.99,2.2,8.01,2.2,8.01c0,0,2.6.12,3.35-.61s0,0,0,0l.2,1.34s-.94-.84-3.46,0c0,0-.29,3.66,2,2.84l-.14.86-.76.48-2.71-1.58s.08-2.09-1.3-2.12,0,0,0,0l.14-3.46-4.05-19.21"/>
      <path class="cls-1" d="M99.37,138.34s3.44-2.29,14.37-.29c0,0-7.06,2.58-11.36,1.86s-3.01-1.58-3.01-1.58Z"/>
      <path class="cls-43" d="M49.07,131.41s-4.84-8.82-13.04-7.72c-8.2,1.1-9.06,1.58-9.06,1.58l-9.23.49s-3.39-2.13-4.97,1.61l-4.81,2.63-5.05,5.28s5.52-5.44,8.12-4.97,3.71-.88,3.71-.88c0,0,2.52.07,3.94-.08s5.52,0,5.52,0c0,0,3.78-.46,5.2.64s7.1,1.03,7.1,1.03c0,0,9.19.4,9.54-.87,0,0,2.28,1.26,2.12,2.52l3.44,4.36-1.66-5.63h-.88Z"/>
      <path class="cls-32" d="M94.54,149.66l.86.36,2.6-2.02s-.22-1.87,1.08-1.51c0,0,1.66-5.91,11.97-4.61l8.44.22s7.93,6.34,9.52,6.78c0,0,1.23.72-2.52-.36-3.75-1.08-6.63.79-6.63.79,0,0-2.88.14-4.33-.72s-4.61.94-4.61.94c0,0-3.38,3.15-8.58,1.15,0,0-3.13-.21-3.98-2.02l-.66-.11-1.7,1.59-2.34.85.89-1.33Z"/>
      <path class="cls-32" d="M87.84,118.36s-1.09-5.3,5.01-11.4c0,0,1.19,1.64-1.93,7.29s-3.07,4.11-3.07,4.11Z"/>
      <path class="cls-32" d="M87.99,120.34l.5-1.54s4.81-5.01,5.25-7.78,1.98-4.06,1.98-4.06c0,0,1.44-.99,1.49.4s-1.24,4.66-1.24,4.66c0,0-4.76,6.84-7.98,8.33Z"/>
      <path class="cls-32" d="M93.06,96.21s7.01-5.55,11.62-6.84c0,0,.1.99-.5,1.34,0,0-4.21.25-3.17,2.08l-7.96,3.42Z"/>
      <path class="cls-32" d="M88.73,100.57s1.98-3.12,3.87-2.63l-1.24,2.28s-.89-.1-1.34.35-1.29,0-1.29,0Z"/>
      <path class="cls-32" d="M100.51,72.35s-1.43-4.7,8.14-4.99l4.82.83,13.32-.54-14.86,2.73-11.41,1.96Z"/>
      <path class="cls-32" d="M99.85,58.5s-2.91-2.14-2.02-4.04,8.92-5.41,8.92-5.41c0,0,7.85-4.52,8.56-3.69,0,0-.06,4.16-3.8,4.7s-5.53,3.15-5.53,3.15l-6.12,5.29Z"/>
      <path class="cls-43" d="M119.09,43.34s-.05-1.88,1.46-1.51l1.74-.05,2.35.38-.89.66s-2.12-.42-2.92.52h-1.74Z"/>
      <path class="cls-32" d="M14.65,173.8s11.32-.98,15.93.55h-6.64s-2.15,2.15-9.29-.55Z"/>
      <path class="cls-32" d="M34.58,174.32s4.28-3.29,6.45.71,0,0,0,0c0,0-2.32-1.35-6.45-.71Z"/>
      <path class="cls-32" d="M75.55,142.46s-1.82,3.53.5,2.31,2.62-2.31,2.62-2.31l-4.17,6.58s-.29-1.21-1.36,0-2.04,1.75-1.75,2.57-.19,1.16-.53,1.12-.73-.53-.73-.53c0,0-.29-1.78-1.87-2.13s0,0,0,0c0,0,4.16-7.61,7.28-7.61"/>
      <path class="cls-32" d="M68.43,152.41s2.34.77.64,2.95-1.85.33-1.85.33c0,0-.89,3.06-1.56,2.23s-.24-3.34-.24-3.34c0,0-.62,1.67-1.47,1.42s-1.68-2.29-1.68-2.29c0,0-.24-2.17,1.46-2.89s2.25-1.24,2.25-1.24l2.46,2.82"/>
      <path class="cls-32" d="M64.02,159.38s-.26-1.19-.86-1.18l.86-1.3,1.12,1.45s-.92-.09-1.12,1.03Z"/>
      <path class="cls-32" d="M62.63,143.86l-3.63-5.56s4.26-2.31,6.14-.68l-2.51,6.23Z"/>
      <path class="cls-32" d="M65.97,138.36l-3.33,6.64s6.85-4.61,3.33-6.64Z"/>
      <path class="cls-32" d="M60.54,133.52l2.62-1.75s-1.94-1.39-3.41-.36.79,2.1.79,2.1Z"/>
      <path class="cls-32" d="M45.58,199.56s-.04-2.77,1.77-3.84c0,0,.37-5.03,5.19-6.35l.99-.91,1.19.41s4.74-4.04,9.77,1.36,0,0,0,0l-3.67.99-10.18,4.82-3.88,3.51h-1.19Z"/>
      <path class="cls-32" d="M65.96,179.86s-7.09-.07-9.8.46h-3.59s-1.47-1-3.34.76-3.34,2.7-3.34,2.7l3.87-2.23s2.29,1.17,5.63-.41c0,0,1.53.16,3.58-.53l7.77.76-.77-1.52"/>
      <path class="cls-32" d="M72.32,179.33l-.94,1.47.94,6.39s.05,2.73,2.4,4.39l.41,4.53,1.06,1.88,2.81-1.41-1.88-10.44-2.17-5.39-2.64-1.41Z"/>
      <path class="cls-32" d="M79.71,193.93s.54-2.29,1.42-2.05,0,0,0,0l-.51-6.1-2.54.53,1.64,7.62Z"/>
      <path class="cls-32" d="M82.47,162.79l8.62-2.35s-.94-.88,6.33.7c0,0,2.17.35,3.4,1.23,0,0,3.93-.06,6.51,3.11l.88.88,5.69,2.11s1.99-.47,3.28,1.17,5.04,2.93,5.04,2.93l5.34,8.91-6.33-8.5s-2.11-1.11-3.28-1.29c0,0-2.64-1.82-5.22-1.76s-4.1-.88-4.1-.88l-2.7-2.87-14.83-5.1-8.62,1.7Z"/>
      <path class="cls-48" d="M23.7,103.29v-1.87s1.41-1.83,3.98-.42,2.55,4.69,2.55,4.69c0,0-1.84,1.69-1.05,4.78l-.98-4.55-4.5-2.62Z"/>
      <path class="cls-28" d="M37.76,119.32l-1.87-1.79s-.72-2.81-2.87-2.81-4.91-2.06-4.91-2.06c0,0-.94-.7-3,.56s-3.84,1.5-3.84,1.5c0,0-3.7,2.48-8.34,2.06,0,0-3.33-.44-5.29,1.65l-3.05,1.82,2.3-.93s.8.21,2.25-.88,2.2.88,2.2.88c0,0,6.7,4.07,10.5,1.92,0,0,3.86-.61,5.14-1.5s8.4-1.97,8.4-1.97l2.39,1.55Z"/>
      <polyline class="cls-11" points="33.96 105.93 33.96 107.08 37.76 110.87 41.39 113.96 41.94 115.31 43.45 117.35 45.27 118.19 44.66 115.98 42.14 114.44 41.13 112.06 40.82 109.6 40.37 109.23 40.6 112.06 40.91 112.88 37.6 110.07 33.96 105.93"/>
      <polyline class="cls-8" points="42.78 100.46 49.07 103.59 50.29 103.92 49.95 105.01 53.56 113.28 52.79 112.91 49.07 104.7 45.02 101.97 43.13 102.05 42.78 100.46"/>
      <path class="cls-34" d="M49.95,130.7l1.09.71s-.67-2.92,0-4.5.79-3.89.79-3.89c0,0,.06-2.85,1.34-3.22s2.25,2.19,2.25,2.19c0,0-1.21-3.96,2.13-3.56s1.94,1.56,1.94,1.56c0,0,1.83-1.34,3.68.61s4.03,5.16,4.03,5.16l-2.19.49-.6.97s-4.04-.12-4.21.67-1.63,3.16-1.63,3.16c0,0-2.61-2.85-6.44-1.4l-.3,2.98,1.52,1.82-1.22,1.88-2.18-5.63"/>
      <path class="cls-32" d="M46.43,113.62s6.61-1.65,8.65,0,6.04,2.19,6.04,2.19c0,0,3.31,1.08,4.3,2.63s2.75,1.43,2.75,1.43l.49,2.13-1.46,3.76s-2.91-2.13-3.7-4.01l-3.04-2.13-.97.36s-1.62-.49-2.91-.67-1.16,2.68-1.16,2.68c0,0-1.76-3.1-3.16-.97v.73s-5.65-3.7-4.31-7.41l-1.52-.73Z"/>
      <path class="cls-46" d="M24.77,157.34s1.71-1.99,3.18-1.59c0,0,1.56-.34,2.2-1.19s3-.43,3-.43c0,0,3.18,1.96,5.75,1.25l7.07,3.43,1.77.43s5.63-.06,9.15,2.97l-3.09-.43-3-.37-8.6-1.56-5.48-.86,5.54,1.44,7.22,1.25s-9.52,2.11-13.77-1.01c0,0-1.13-1.32-5.51-1.16,0,0-1.77-.6-2.39-1.31s-1.41-.8-1.41-.8l-1.65-.06Z"/>
      <path class="cls-46" d="M70.47,174.49s1.24-1.33,2.52-.96c0,0,1.51-1.42,2.2-1.46s2.97-.59,2.97-.59c0,0,.82-.73,2.38-.32,0,0,7.18,1.05,10.38,6.82,3.2,5.76,2.74,6.63,2.74,6.63,0,0,.27,2.47-.64,4.25,0,0,2.33,4.39,2.38,9.61h-.46l-1.83-5.03-.23-1.14s-2.38-4.39-6.82-4.21c0,0-1.56,3.25-2.65,4.3s-.69,4.48-.69,4.48c0,0-1.1-2.47-1.6-4.99l-.69-1.65s-.37-4.16-1.24-3.29,0,2.97,0,2.97l1.1,3.66.91,4.89h-6.08l-.09-1.65-.55-.46.14-.64.37-3.57s.05,5.44,1.6,4.89.09-5.47.09-5.47l-1.92-9.67s-5.26-2.84-4.3-7.41Z"/>
      <path class="cls-46" d="M60.68,192.1c.32.97.72,2,1.19,3.08.57,1.29,1.17,2.46,1.75,3.49,2.24-.07,4.49-.14,6.73-.21l-.25-1.14.64-.27.27,1.42h2.29l-.32-1.33-2.97-2.1-1.19-1.05s1.13-.18.25-1.1l-.43-.09-3.44-2.48s-2.74-.4-4.93.75-6.27,2.7-6.27,2.7c0,0-6.13,2.15-7.23,5.81l5.26-.23,2.36-4.16s3.81-1.34,5.64-3.6l.64.53Z"/>
      <path class="cls-46" d="M26.28,144.05s2.93-4.02,5.79-3.88,2.52.68,2.52.68l4.15-.14s1.84-1.23,4.63-.27,3.95,1.09,3.95,1.09c0,0,9.26,1.75,9.26,3.13l1.22,1.39h-2.68s-1.48-2.61-9.85-2.2-8.98-.34-8.98-.34c0,0-4.23.75-4.84-.44,0,0-2.99-1.19-5.17.99Z"/>
      <path class="cls-2" d="M12.05,79.64s2,1.03,4.27.34c2.27-.69,4.78.62,4.78.62,0,0,.96,1.17-.17,1.65s-3.51,1.03-3.51,1.03c0,0-2.03.03-2.99-1.82s-2.38-1.82-2.38-1.82Z"/>
      <path class="cls-2" d="M24.15,87.53s-2.02-4.74-2.87-5.49l-.33.21.72,1.03-1.58-1.24-.5.68s1.64-.19,4.05,4.7,0,0,0,0l.52.12"/>
      <path class="cls-31" d="M38.97,91.3c-.38.3-.15,1.7,2.75,6.68l13.81,10.54-.46,5.08c.35.35.52.37.61.34.3-.13.04-1.07.09-2.97,0-.08.02-.35.04-.89.04-.79.1-1.84.18-3.1-1.85-2.19-4.59-5.28-8.17-8.74-2.74-2.65-7.93-7.67-8.85-6.94Z"/>
      <path class="cls-52" d="M27.44,98.94s1.12-.27,2.97,2.34c1.84,2.61,2.38,2.93,2.38,2.93l.22.81-.94-.27-3.44-3.37s.11-.9-1.19-2.43Z"/>
      <path class="cls-46" d="M24.55,93.96s.95-.77,1.09,4.49l1.8,3.33.4,3.24,1.71.99s7.68-1.44,10.61,3.55c0,0,.07.63,1.23,0s2.01-.07,2.01-.07c0,0,3-4.43-.28-7.44s0,0,0,0l-.76-3.41-2.74-2.44-8.77-1.29-6.31-.95"/>
      <polygon class="cls-46" points="31.45 105.82 33.38 107.26 38.1 116.89 42.06 123.9 48.31 131.1 49.07 131.41 47.14 129.12 42.73 123.72 39.58 118.42 34.61 108.12 34.86 107.62 34.33 106.68 33.96 107.08 32.21 105.46 31.45 105.82"/>
      <path class="cls-50" d="M40.48,95.86c-.15-.41-.25-.74-.32-.96,0,0-2.58-1.93-9.01-1.82-6.43.1-10.89-1.59-10.89-1.59-1.19-.11-2.39-.23-3.58-.34.35.35.91.79,1.69,1,.45.12.74.21,1.33.14.84-.09,2.26.42,2.26.42.56.35,1.44.85,2.6,1.24,2.23.76,3.87.58,5.54.59,5.59.03,10.33,2.16,10.5,1.65,0-.03,0-.03-.11-.34Z"/>
      <path class="cls-40" d="M9.04,90.04l6.62-.61,1.97-2.77s5.3-.06,9.43,2.08c0,0,3.43-.77,3.33.78l3.93,2.21s4.78.76,5.33,1.68.49,1.49.49,1.49c0,0-3.43-2.16-9.01-1.82s-10.89-1.59-10.89-1.59c0,0-.89,1.45-5.44-1.22l-5.77-.23Z"/>
      <path class="cls-40" d="M21.95,92.71s3.23,2.01,6.75,2.19,6.81,2.6,6.81,2.6c0,0,3.34,1.28,4.88,0l1,1.14-.92-2.78s-1.89-2.55-8.8-1.87c-6.91.69-9.72-1.28-9.72-1.28Z"/>
      <path class="cls-24" d="M4.25,90.12s3.73-3.08,5.44-3.14c0,0,1.9-3.93,5.57-3.86l2.1,1.38s1.77-.46,2.16.79l3.8,1.97,2.1.71.56,1.01,3.5,1.61s4.26,5.5,3.8,8.91l.69,4.72-1.08-.66-.39-4.06-7.34-6.94-5.37-4.13s-2.88.39-6.16-.72l-4.65.26-4.72,2.16Z"/>
      <path class="cls-32" d="M35.63,78.2l3.54.39s2.08-1.44,2.96.16,0,0,0,0c0,0,3.72-.16,5.1,2.2,0,0,3.86,5.18,4.19,6.62s.46,2.42.39,3.6-1.38,6.68-3.34,8.32l-5.97-4.14-3.53-4.05-1.83-.59-1.97-6.49s-1.31-1.9-.66-3.01c0,0,1.21.41,1.11-3.01Z"/>
      <path class="cls-2" d="M38.77,89.73s3.01-1.7,4.78,0,2.29,2.69,2.29,2.69l2.23,2.49-3.08-1.64-4.85-1.33s-3.28.21-1.38-2.21Z"/>
      <polygon class="cls-2" points="38.97 91.3 41.39 98.64 42.9 99.81 42.8 98.77 41.72 97.98 38.97 91.3"/>
      <path class="cls-18" d="M5.14,52.9s.9-.24,2.15-.37c1.66-.18,3.95-.18,5.6.8,2.91,1.71,8.23.74,8.23.74,0,0,3.23,1.55,3.3,2.84,0,0,5.93,1.86,6.57,3.14s3.07,0,3.78,1.43c0,0,6.14,5.28,7.57,7.21,0,0,3.07.21,3.93,3.28s.43,4.86.43,4.86l-3.69,3.53-15.58-19.24-22.28-8.22"/>
      <path class="cls-49" d="M33.96,71.64l7.21,16.83,1.87,18.9,1.87,10.85,2.39,6.42s6.94,20.48,7.82,21.41h1.46s-6.65-13.13-8.46-21.59l-2.85-7.06-2.23-15.98-1.27-14.17-7.81-15.61"/>
      <polygon class="cls-15" points="57.8 151.65 59.4 155.69 60.2 155.22 59.73 153.52 59.16 152.69 59.23 151.65 58.63 150.82 57.8 151.65"/>
      <path class="cls-15" d="M59.86,157.92l2.1,9.54-1.05-.57s-1.22-2.57-1.22-3.1l-.77-.83.4,1.8.63,1.67s1.4,1.73,2,1.8l3.73,10.57,2.37,9.6h-1.33l-5.87-1.7-5.5-1.2s-7.47-3.33-10.24-5.67-4.1-4.8-4.1-4.8c0,0-.23-1.2-1.3-1.87,0,0,1.07,1.43,1,1.97l3.27,4.27s4.3,4,10.07,6.04l.37.67,6,.97s7.8,2.4,7.64,3.23h-2.87l.43.47h2.44l.86.8.13-4.3-3.07-11.47-1.73-7.17s-2.3-8.24-2.57-9.47l-.67-.8s-.3.07-1.17-.43Z"/>
      <path class="cls-55" d="M0,53.48s4.36-2.43,26.06,8.42c0,0,2.57,5.85,4.21,5.5,0,0,4.86,6.43,11.85,11.35l-1.07,7.14.71,1.36,1-6.21,1.14-3.36s-.93-1.43-2.86-1.64c0,0-12.14-20.28-15.92-18.56s-6.14-1.21-6.14-1.21l-4.28-1.64s-11.28-2.93-14.71-1.14Z"/>
      <path class="cls-49" d="M6.07,55.69s8.78-2.64,11.78-1.29c0,0,1.57.56,6.71-1.51,0,0,.93-.64,1.86,1.86s1.02,3.36,1.02,3.36l1.27.36s-1.86-6.57-4.07-6.21c0,0-12.78-.14-18.56,3.43Z"/>
      <path class="cls-46" d="M77.58,139.05l-.66.16-5.34-7.16-.34-1.53-.61-1.16h-.34l.71,1.21s-.11.39-.61.29c-.5-.11-.53.16-.53.16l1.79,1.76,4.92,6.6-1.45,1.76s-1.79-.05-1.03-1.24l-1.26,1.08s-4.21,1.42-5.58,3.71c0,0-2.68.16-3.29.66-.61.5-1.34-.36-1.34-.36l-.75,1.05h-4.09s-3.87-.57-4.49,1c0,0-3.47.48-3.27,3.06,0,0,.27.82-.68,1.23,0,0,.75,2,1.63,1.92.89-.08.27,1.48.27,1.48,0,0-1.36,1.77-.89,2.59,0,0,1.97-3.75,5.04-5.58,0,0,3.47,1.29,4.02-1.77l1.5-.82s1.91-.07,2.04-.61l.18.9-2.11,2.39.13,2.37s-1.95,1.16-1.92,1.79c0,0-1.08.37-.71.89.37.53.79.16.79.16l.52.88,1.17.43.02-1.23s3.53.74,2.89-1.13c0,0,.61-1.5-.66-2.05-1.26-.55.18-1.66.18-1.66l1.95-2.18s-.76,1.87.29,1.79c1.05-.08,1.13-.37,1.13-.37,0,0-.11,2.55.74,2.66.84.11.92-.79.92-.79l-.24-3.32s6.39-7.29,7.82-7.97l4.95-3.6.45-1.24s-3.39.95-3.89,1.79ZM64.19,148.34l-1.03-.53s.11-2.97,2.5-1.32l-1.47,1.84Z"/>
    </g>
  </g>
</svg>